<svg xmlns="http://www.w3.org/2000/svg" xmlns:xlink="http://www.w3.org/1999/xlink" width="500" zoomAndPan="magnify" viewBox="0 0 375 374.999991" height="500" preserveAspectRatio="xMidYMid meet" version="1.0"><defs><g/><clipPath id="1393afd10a"><path d="M 97.574219 131 L 151 131 L 151 175 L 97.574219 175 Z M 97.574219 131 " clip-rule="nonzero"/></clipPath><clipPath id="5c3231cb06"><path d="M 98 219 L 277.574219 219 L 277.574219 266.542969 L 98 266.542969 Z M 98 219 " clip-rule="nonzero"/></clipPath></defs><path fill="#336431" d="M 190.320312 159.628906 L 187.074219 162.808594 L 191.121094 160.1875 L 192.140625 156.003906 L 194.742188 154.832031 L 189.214844 154.949219 L 188.835938 156.484375 L 190.964844 156.304688 Z M 190.320312 159.628906 " fill-opacity="1" fill-rule="nonzero"/><path fill="#336431" d="M 158.742188 166.925781 C 162.066406 166.925781 164.886719 162.761719 165.839844 157.003906 C 165.476562 158.753906 164.925781 160.292969 164.234375 161.472656 C 164.703125 160.40625 165.082031 159.15625 165.351562 157.8125 C 165.40625 157.5625 165.457031 157.292969 165.496094 157.035156 C 165.734375 155.628906 165.871094 154.121094 165.871094 152.546875 C 165.871094 151.929688 165.851562 151.316406 165.8125 150.710938 C 165.773438 150.21875 165.734375 149.730469 165.675781 149.257812 C 165.445312 147.277344 164.992188 145.46875 164.386719 143.960938 C 164.300781 143.761719 164.222656 143.558594 164.136719 143.367188 C 163.847656 142.742188 163.539062 142.164062 163.203125 141.675781 C 163.171875 141.636719 163.144531 141.605469 163.105469 141.558594 C 162.394531 140.847656 161.605469 140.464844 160.777344 140.464844 C 157.714844 140.464844 155.230469 145.75 155.230469 152.265625 C 155.230469 158.78125 157.714844 164.070312 160.777344 164.070312 C 161.429688 164.070312 162.054688 163.828125 162.632812 163.386719 C 162.855469 163.222656 163.203125 163.417969 163.058594 163.609375 C 162.085938 164.953125 160.929688 165.742188 159.6875 165.742188 C 156.257812 165.742188 153.484375 159.820312 153.484375 152.535156 C 153.484375 145.238281 156.257812 139.328125 159.6875 139.328125 C 160.976562 139.328125 162.164062 140.164062 163.15625 141.585938 C 163.164062 141.605469 163.183594 141.625 163.203125 141.644531 C 163.5 141.953125 163.789062 142.316406 164.050781 142.742188 C 162.703125 140.136719 160.832031 138.519531 158.761719 138.519531 C 154.660156 138.519531 151.328125 144.875 151.328125 152.707031 C 151.308594 160.5625 154.640625 166.925781 158.742188 166.925781 Z M 157.230469 153.429688 L 157.230469 153.402344 C 157.183594 153.257812 157.15625 153.101562 157.144531 152.949219 C 157.136719 152.890625 157.125 152.84375 157.117188 152.796875 C 157.105469 152.640625 157.085938 152.488281 157.085938 152.3125 C 157.085938 151.871094 157.15625 151.457031 157.269531 151.09375 C 157.308594 150.96875 157.355469 150.863281 157.40625 150.746094 C 157.714844 150.054688 158.214844 149.605469 158.792969 149.605469 C 159.726562 149.605469 160.488281 150.816406 160.488281 152.304688 C 160.488281 153.792969 159.726562 155.003906 158.792969 155.003906 C 157.839844 154.929688 157.425781 154.132812 157.230469 153.429688 Z M 161.140625 162.859375 C 159.890625 162.859375 158.773438 161.148438 158.089844 158.542969 C 158.039062 158.351562 158.339844 158.234375 158.523438 158.371094 C 158.878906 158.628906 159.234375 158.78125 159.535156 158.890625 C 159.746094 158.984375 159.957031 159.050781 160.179688 159.050781 C 161.816406 159.050781 163.144531 156.09375 163.144531 152.449219 C 163.144531 148.796875 161.816406 145.84375 160.179688 145.84375 C 159.839844 145.84375 159.523438 145.96875 159.214844 146.203125 C 158.78125 146.527344 158.03125 146.230469 158.15625 145.777344 C 158.851562 143.308594 159.929688 141.730469 161.132812 141.730469 C 162.933594 141.730469 164.433594 145.230469 164.820312 149.921875 C 164.820312 149.921875 164.820312 149.921875 164.820312 149.929688 C 164.828125 150.007812 164.828125 150.085938 164.839844 150.160156 C 164.886719 150.84375 164.917969 151.566406 164.917969 152.304688 C 164.925781 158.121094 163.230469 162.859375 161.140625 162.859375 Z M 161.140625 162.859375 " fill-opacity="1" fill-rule="nonzero"/><path fill="#336431" d="M 147.140625 152.8125 C 147.140625 160.886719 149.21875 167.953125 152.339844 171.789062 C 153.910156 173.730469 155.738281 174.835938 157.695312 174.835938 L 171.109375 174.835938 C 171.242188 174.835938 171.378906 174.816406 171.511719 174.769531 C 171.761719 174.679688 172.015625 174.585938 172.253906 174.480469 C 173.476562 173.941406 174.59375 173.394531 175.605469 172.683594 C 175.296875 172.757812 175.007812 172.855469 174.71875 172.941406 L 174.25 173.105469 C 174.09375 173.152344 173.941406 173.210938 173.777344 173.269531 C 173.46875 173.375 173.167969 173.5 172.863281 173.625 C 172.726562 173.691406 172.574219 173.757812 172.429688 173.816406 C 172.273438 173.882812 172.140625 173.949219 171.984375 174.007812 L 171.503906 174.171875 C 171.347656 174.230469 171.175781 174.289062 170.984375 174.324219 L 170.703125 174.113281 C 170.78125 173.980469 170.878906 173.84375 170.972656 173.71875 C 171.070312 173.59375 171.203125 173.488281 171.332031 173.382812 C 171.457031 173.277344 171.589844 173.183594 171.746094 173.09375 C 171.898438 173.007812 172.0625 172.921875 172.226562 172.835938 C 172.589844 172.652344 173.207031 172.375 173.59375 172.21875 C 173.613281 172.210938 173.632812 172.203125 173.640625 172.203125 L 174.140625 172.019531 C 174.296875 172.027344 174.488281 172.046875 174.644531 172.066406 C 175.078125 172.34375 175.539062 172.632812 175.933594 172.863281 C 176.40625 173.132812 176.789062 173.316406 176.964844 173.316406 C 177.589844 173.316406 188.257812 173.316406 188.257812 173.316406 C 188.257812 173.316406 191.753906 173.019531 193.824219 171.222656 C 194.441406 170.691406 194.933594 170.019531 195.164062 169.183594 C 195.40625 168.335938 195.597656 167.53125 195.769531 166.789062 C 197.464844 166.597656 198.957031 165.539062 199.699219 163.964844 L 200.316406 162.65625 C 200.316406 162.65625 202.125 152.382812 207.230469 149.785156 C 206.179688 151.601562 205.679688 153.679688 205.332031 155.574219 C 205.027344 157.253906 204.890625 158.964844 204.890625 160.667969 C 204.890625 165.933594 206.238281 170.527344 208.269531 173.027344 C 209.292969 174.285156 210.484375 175.019531 211.765625 175.019531 L 220.5 175.019531 C 220.585938 175.019531 220.675781 175 220.761719 174.96875 C 220.925781 174.910156 221.089844 174.84375 221.253906 174.785156 C 222.050781 174.429688 222.785156 174.085938 223.429688 173.613281 C 223.234375 173.664062 223.042969 173.730469 222.851562 173.789062 L 222.542969 173.894531 C 222.4375 173.921875 222.339844 173.960938 222.234375 174 C 222.03125 174.066406 221.839844 174.152344 221.636719 174.230469 C 221.539062 174.277344 221.453125 174.324219 221.347656 174.363281 C 221.253906 174.402344 221.164062 174.449219 221.058594 174.488281 L 220.75 174.605469 C 220.644531 174.644531 220.53125 174.671875 220.40625 174.699219 L 220.222656 174.566406 C 220.269531 174.480469 220.328125 174.394531 220.394531 174.316406 C 220.460938 174.238281 220.539062 174.171875 220.625 174.105469 C 220.710938 174.039062 220.800781 173.96875 220.894531 173.914062 C 220.992188 173.855469 221.089844 173.804688 221.195312 173.75 C 221.398438 173.652344 221.609375 173.546875 221.8125 173.460938 C 221.917969 173.421875 222.011719 173.375 222.128906 173.324219 L 222.445312 173.199219 C 222.65625 173.125 222.878906 173.046875 223.109375 172.96875 C 223.3125 172.914062 223.523438 172.84375 223.746094 172.789062 C 223.96875 172.71875 224.199219 172.664062 224.429688 172.613281 L 224.488281 172.59375 C 224.527344 172.59375 224.554688 172.566406 224.585938 172.539062 C 225.09375 171.953125 225.546875 171.191406 225.953125 170.210938 C 225.988281 170.117188 225.875 170.027344 225.75 170.058594 C 225.644531 170.078125 225.539062 170.105469 225.441406 170.125 C 225.21875 170.183594 225.007812 170.230469 224.796875 170.289062 C 224.585938 170.347656 224.371094 170.414062 224.171875 170.472656 L 223.851562 170.578125 C 223.746094 170.605469 223.648438 170.644531 223.542969 170.683594 C 223.34375 170.75 223.160156 170.835938 222.957031 170.914062 C 222.859375 170.960938 222.773438 171 222.675781 171.039062 C 222.582031 171.078125 222.484375 171.113281 222.386719 171.164062 L 222.082031 171.277344 C 221.972656 171.316406 221.867188 171.347656 221.734375 171.375 L 221.550781 171.238281 C 221.597656 171.144531 221.65625 171.066406 221.734375 170.988281 C 221.800781 170.902344 221.878906 170.847656 221.964844 170.769531 C 222.050781 170.710938 222.136719 170.632812 222.234375 170.585938 C 222.332031 170.527344 222.425781 170.480469 222.53125 170.421875 C 222.734375 170.328125 222.9375 170.222656 223.148438 170.136719 C 223.265625 170.085938 223.359375 170.039062 223.46875 170.011719 L 223.792969 169.886719 C 224.007812 169.796875 224.226562 169.722656 224.449219 169.664062 C 224.671875 169.585938 224.890625 169.527344 225.125 169.460938 C 225.355469 169.402344 225.574219 169.347656 225.808594 169.289062 L 226.164062 169.210938 L 226.347656 169.171875 C 226.636719 168.28125 226.894531 167.222656 227.136719 165.972656 C 226.953125 165.847656 226.894531 165.820312 226.710938 165.714844 C 226.546875 165.75 226.386719 165.789062 226.222656 165.839844 C 226.007812 165.894531 225.796875 165.964844 225.59375 166.019531 L 225.289062 166.125 C 225.171875 166.15625 225.085938 166.195312 224.980469 166.230469 C 224.765625 166.300781 224.585938 166.386719 224.382812 166.464844 C 224.285156 166.511719 224.199219 166.550781 224.09375 166.589844 C 223.996094 166.625 223.902344 166.675781 223.804688 166.714844 L 223.496094 166.828125 C 223.390625 166.867188 223.285156 166.894531 223.160156 166.914062 L 222.976562 166.78125 C 223.015625 166.683594 223.082031 166.605469 223.148438 166.53125 C 223.214844 166.453125 223.304688 166.386719 223.390625 166.308594 C 223.476562 166.242188 223.5625 166.175781 223.660156 166.125 C 223.757812 166.070312 223.851562 166.019531 223.957031 165.964844 C 224.160156 165.867188 224.363281 165.761719 224.574219 165.675781 C 224.679688 165.625 224.785156 165.578125 224.882812 165.550781 L 225.210938 165.425781 C 225.429688 165.347656 225.644531 165.269531 225.863281 165.203125 C 226.097656 165.128906 226.316406 165.070312 226.539062 165.003906 C 226.769531 164.945312 226.992188 164.878906 227.222656 164.828125 C 227.289062 164.820312 227.328125 164.769531 227.347656 164.722656 C 227.53125 163.550781 227.703125 162.222656 227.847656 160.714844 L 227.847656 160.667969 C 227.753906 160.6875 227.65625 160.714844 227.550781 160.726562 C 227.339844 160.78125 227.117188 160.839844 226.914062 160.898438 C 226.703125 160.957031 226.492188 161.023438 226.289062 161.082031 L 225.980469 161.175781 C 225.875 161.214844 225.777344 161.242188 225.671875 161.292969 C 225.460938 161.359375 225.277344 161.445312 225.074219 161.523438 C 224.988281 161.5625 224.890625 161.609375 224.796875 161.648438 C 224.691406 161.6875 224.613281 161.734375 224.507812 161.773438 L 224.199219 161.878906 C 224.09375 161.917969 223.988281 161.945312 223.863281 161.972656 L 223.679688 161.839844 C 223.71875 161.742188 223.785156 161.65625 223.863281 161.589844 C 223.917969 161.503906 224.007812 161.4375 224.09375 161.367188 C 224.179688 161.300781 224.265625 161.234375 224.363281 161.175781 C 224.460938 161.117188 224.554688 161.070312 224.660156 161.023438 C 224.660156 161.023438 224.660156 161.023438 224.671875 161.023438 C 224.863281 160.925781 225.066406 160.832031 225.289062 160.734375 C 225.394531 160.695312 225.5 160.648438 225.605469 160.609375 L 225.921875 160.484375 C 225.980469 160.476562 226.027344 160.445312 226.078125 160.425781 C 226.242188 160.367188 226.414062 160.3125 226.578125 160.261719 C 226.800781 160.195312 227.019531 160.128906 227.25 160.070312 C 227.433594 160.011719 227.617188 159.964844 227.808594 159.925781 C 227.878906 159.90625 227.925781 159.871094 227.925781 159.820312 C 228.023438 158.4375 227.992188 157.148438 227.867188 155.957031 C 227.867188 155.878906 227.773438 155.832031 227.675781 155.84375 C 227.578125 155.851562 227.492188 155.871094 227.394531 155.890625 C 227.175781 155.929688 226.960938 155.96875 226.742188 156.015625 C 226.519531 156.0625 226.308594 156.109375 226.097656 156.160156 L 226.027344 156.179688 L 225.777344 156.234375 C 225.671875 156.265625 225.574219 156.292969 225.46875 156.332031 C 225.257812 156.390625 225.054688 156.457031 224.855469 156.535156 C 224.757812 156.574219 224.660156 156.609375 224.566406 156.648438 C 224.496094 156.667969 224.429688 156.699219 224.363281 156.714844 C 224.324219 156.726562 224.296875 156.734375 224.257812 156.746094 L 223.9375 156.839844 C 223.832031 156.871094 223.71875 156.898438 223.582031 156.917969 L 223.417969 156.773438 C 223.476562 156.6875 223.542969 156.609375 223.613281 156.535156 C 223.679688 156.457031 223.773438 156.390625 223.871094 156.332031 C 223.957031 156.265625 224.054688 156.207031 224.160156 156.160156 C 224.238281 156.109375 224.316406 156.082031 224.402344 156.042969 C 224.421875 156.035156 224.449219 156.023438 224.46875 156.015625 C 224.679688 155.929688 224.890625 155.832031 225.113281 155.765625 C 225.21875 155.71875 225.324219 155.6875 225.441406 155.640625 L 225.777344 155.535156 C 225.875 155.503906 225.972656 155.476562 226.066406 155.457031 C 226.191406 155.417969 226.328125 155.390625 226.453125 155.351562 C 226.683594 155.292969 226.914062 155.246094 227.136719 155.1875 C 227.300781 155.148438 227.453125 155.128906 227.609375 155.101562 C 227.65625 155.09375 227.695312 155.074219 227.714844 155.042969 C 227.734375 155.023438 227.742188 154.996094 227.734375 154.976562 C 227.734375 154.949219 227.734375 154.929688 227.722656 154.898438 C 227.617188 154.199219 227.472656 153.542969 227.28125 152.910156 C 227.261719 152.824219 227.234375 152.738281 227.214844 152.652344 C 226.808594 150.191406 224.152344 147.324219 224.152344 147.324219 L 224.691406 145.96875 L 225.085938 136.136719 L 225.132812 135.042969 C 225.132812 135.03125 225.132812 135.03125 225.132812 135.03125 C 224.738281 132.621094 223.96875 132.621094 223.96875 132.621094 L 222.0625 132.621094 L 221.6875 132.542969 L 214.039062 132.484375 L 214.050781 132.128906 L 214.050781 128.488281 C 214.050781 127.804688 213.492188 127.238281 212.796875 127.238281 L 212.421875 127.238281 L 212.421875 124.546875 C 212.421875 124.265625 212.199219 124.046875 211.921875 124.046875 C 211.640625 124.046875 211.421875 124.265625 211.421875 124.546875 L 211.421875 127.488281 C 211.113281 127.726562 210.917969 128.082031 210.917969 128.488281 L 210.917969 131.054688 L 202.886719 129.929688 L 201.183594 115.683594 L 202.195312 115.433594 L 201.945312 113.300781 C 201.945312 113.300781 190.90625 108.292969 167.941406 111.789062 L 166.996094 113.234375 L 166.0625 114.675781 L 167.699219 116.558594 L 166.324219 126.4375 C 165.582031 126.390625 164.800781 126.371094 163.992188 126.382812 L 163.617188 126.382812 L 163.617188 128.199219 L 166.070312 128.253906 L 165.976562 128.917969 L 165.15625 128.917969 C 164.011719 128.917969 163 128.9375 162.191406 128.949219 C 161.824219 128.957031 161.46875 128.957031 161.140625 128.96875 C 160.863281 128.96875 160.59375 128.976562 160.34375 128.976562 C 159.898438 128.984375 159.496094 128.996094 159.128906 129.003906 C 159.082031 129.015625 159.050781 129.015625 159.003906 129.035156 C 158.386719 129.292969 157.808594 129.582031 157.242188 129.890625 C 156.257812 130.429688 155.34375 131.054688 154.527344 131.714844 C 153.773438 132.332031 153.082031 132.996094 152.464844 133.675781 C 149.59375 136.925781 148.515625 141.195312 147.832031 144.972656 C 147.351562 147.585938 147.140625 150.199219 147.140625 152.8125 Z M 171.15625 171.625 C 170.972656 171.566406 170.820312 171.488281 170.675781 171.414062 L 170.25 171.183594 C 170.117188 171.105469 169.992188 171.007812 169.855469 170.933594 C 169.730469 170.855469 169.605469 170.769531 169.480469 170.683594 C 169.210938 170.519531 168.953125 170.355469 168.683594 170.203125 C 168.539062 170.125 168.402344 170.046875 168.269531 169.980469 L 167.835938 169.769531 C 167.535156 169.636719 167.257812 169.492188 166.949219 169.355469 C 166.648438 169.222656 166.34375 169.105469 166.042969 168.980469 C 165.734375 168.855469 165.425781 168.742188 165.117188 168.625 L 164.792969 168.511719 C 164.683594 168.519531 164.558594 168.53125 164.453125 168.539062 C 164.011719 168.816406 163.558594 169.085938 163.105469 169.355469 C 162.816406 169.519531 162.546875 169.691406 162.269531 169.855469 C 162.578125 169.460938 162.855469 169.058594 163.125 168.644531 C 163.367188 168.269531 163.605469 167.875 163.839844 167.5 L 164.03125 167.308594 L 164.234375 167.183594 C 164.308594 167.136719 164.414062 167.125 164.492188 167.15625 L 164.773438 167.242188 C 164.964844 167.300781 165.117188 167.367188 165.292969 167.425781 L 165.785156 167.605469 C 166.109375 167.730469 166.4375 167.867188 166.746094 168.011719 C 167.0625 168.144531 167.382812 168.289062 167.691406 168.441406 C 168 168.597656 168.304688 168.75 168.605469 168.921875 L 169.039062 169.171875 C 169.183594 169.25 169.328125 169.347656 169.472656 169.433594 C 169.761719 169.605469 170.019531 169.796875 170.300781 170 C 170.414062 170.085938 170.539062 170.183594 170.644531 170.269531 C 170.800781 170.394531 170.925781 170.527344 171.042969 170.664062 C 171.136719 170.777344 171.234375 170.882812 171.292969 171.019531 C 171.359375 171.152344 171.4375 171.289062 171.464844 171.441406 Z M 171.628906 164.734375 C 171.484375 164.65625 171.347656 164.578125 171.203125 164.511719 L 170.78125 164.289062 C 170.484375 164.15625 170.203125 164.011719 169.894531 163.878906 C 169.597656 163.753906 169.289062 163.628906 168.988281 163.503906 C 168.683594 163.378906 168.375 163.261719 168.066406 163.148438 L 167.746094 163.03125 C 167.640625 163.042969 167.515625 163.050781 167.421875 163.070312 C 166.96875 163.339844 166.523438 163.617188 166.070312 163.886719 C 165.910156 163.984375 165.746094 164.078125 165.582031 164.183594 C 165.871094 163.542969 166.128906 162.90625 166.378906 162.273438 C 166.390625 162.234375 166.417969 162.195312 166.457031 162.175781 C 166.628906 162.070312 166.792969 161.972656 166.957031 161.867188 L 167.207031 161.714844 C 167.285156 161.667969 167.382812 161.65625 167.46875 161.6875 L 167.746094 161.773438 C 167.929688 161.832031 168.09375 161.898438 168.269531 161.953125 L 168.757812 162.136719 C 169.085938 162.261719 169.414062 162.398438 169.730469 162.542969 C 170.050781 162.675781 170.367188 162.820312 170.675781 162.972656 C 170.984375 163.128906 171.292969 163.292969 171.589844 163.453125 L 172.023438 163.703125 C 172.175781 163.78125 172.320312 163.886719 172.457031 163.972656 C 172.746094 164.148438 173.003906 164.339844 173.285156 164.53125 C 173.390625 164.609375 173.496094 164.695312 173.59375 164.78125 C 173.765625 164.914062 173.910156 165.058594 174.035156 165.214844 C 174.121094 165.320312 174.210938 165.425781 174.265625 165.550781 C 174.335938 165.683594 174.402344 165.820312 174.441406 165.972656 L 174.121094 166.144531 C 173.941406 166.078125 173.785156 166.011719 173.640625 165.925781 L 173.21875 165.695312 C 173.082031 165.617188 172.96875 165.519531 172.832031 165.453125 C 172.699219 165.375 172.574219 165.289062 172.457031 165.203125 C 172.167969 165.050781 171.90625 164.886719 171.628906 164.734375 Z M 174.105469 126.226562 C 174.921875 126.238281 175.742188 126.257812 176.558594 126.285156 C 177.378906 126.3125 178.195312 126.34375 179.015625 126.382812 L 179.21875 126.390625 L 179.324219 126.515625 L 180.652344 128.074219 L 181.296875 128.863281 C 181.519531 129.121094 181.738281 129.378906 181.953125 129.648438 L 182.011719 129.726562 L 182.011719 129.785156 C 181.953125 130.457031 181.894531 131.128906 181.808594 131.800781 C 181.730469 131.160156 181.671875 130.515625 181.625 129.871094 C 181.382812 129.660156 181.152344 129.4375 180.921875 129.21875 L 180.171875 128.523438 L 178.851562 127.238281 C 178.089844 127.277344 177.320312 127.292969 176.570312 127.324219 C 175.75 127.351562 174.933594 127.371094 174.113281 127.382812 L 174.113281 126.226562 Z M 171.820312 124.957031 L 171.820312 117.058594 L 176.972656 117.386719 L 176.972656 124.96875 L 171.820312 124.96875 Z M 193.285156 135.359375 L 198.804688 131.476562 L 199.875 131.4375 L 198.507812 132.523438 C 197.484375 133.339844 196.472656 134.148438 195.453125 134.972656 C 194.953125 135.386719 194.453125 135.8125 193.941406 136.234375 C 193.757812 136.378906 193.585938 136.542969 193.390625 136.683594 L 193.390625 135.359375 Z M 197.300781 128.21875 L 193.160156 125.082031 L 189.644531 125.082031 L 189.644531 117.011719 L 198.679688 116.191406 L 199.816406 128.21875 Z M 191.949219 134.367188 L 191.949219 146.949219 L 190.628906 143.941406 L 184.042969 143.191406 L 190.1875 143.191406 L 190.1875 141.578125 L 179.613281 140.847656 L 190.1875 140.847656 L 190.1875 138.945312 L 181.488281 137.933594 L 190.1875 137.933594 L 190.1875 136.117188 L 179.804688 134.367188 Z M 175.730469 151.304688 C 175.546875 151.257812 175.382812 151.191406 175.230469 151.121094 L 174.777344 150.929688 C 174.632812 150.863281 174.507812 150.785156 174.363281 150.710938 C 174.21875 150.632812 174.09375 150.554688 173.960938 150.476562 C 173.679688 150.335938 173.402344 150.179688 173.101562 150.054688 C 172.957031 149.988281 172.824219 149.921875 172.667969 149.855469 L 172.214844 149.671875 C 171.90625 149.546875 171.601562 149.429688 171.292969 149.316406 C 170.984375 149.199219 170.664062 149.09375 170.347656 149 C 170.03125 148.890625 169.710938 148.796875 169.394531 148.710938 L 169.058594 148.613281 C 168.953125 148.632812 168.835938 148.652344 168.730469 148.671875 C 168.683594 148.710938 168.632812 148.75 168.574219 148.777344 C 168.421875 148.902344 168.160156 148.824219 168.144531 148.660156 C 168.113281 148.363281 168.074219 148.085938 168.035156 147.804688 C 168.09375 147.691406 168.160156 147.554688 168.210938 147.441406 L 168.34375 147.34375 C 168.414062 147.289062 168.519531 147.289062 168.613281 147.304688 L 168.894531 147.382812 C 169.085938 147.429688 169.25 147.46875 169.433594 147.519531 L 169.953125 147.671875 C 170.289062 147.777344 170.628906 147.894531 170.964844 148.007812 C 171.292969 148.125 171.628906 148.25 171.945312 148.375 C 172.273438 148.507812 172.589844 148.644531 172.910156 148.796875 L 173.382812 149.027344 C 173.546875 149.09375 173.691406 149.179688 173.835938 149.257812 C 174.140625 149.410156 174.429688 149.59375 174.71875 149.757812 C 174.730469 149.757812 174.730469 149.757812 174.730469 149.765625 C 174.863281 149.855469 175.007812 149.949219 175.144531 150.035156 C 175.289062 150.132812 175.402344 150.246094 175.519531 150.351562 C 175.636719 150.46875 175.75 150.585938 175.835938 150.710938 C 175.921875 150.84375 176 150.976562 176.050781 151.121094 Z M 176.050781 158.167969 C 176.136719 158.292969 176.210938 158.425781 176.261719 158.570312 L 175.953125 158.765625 C 175.769531 158.707031 175.597656 158.640625 175.453125 158.582031 L 175 158.378906 C 174.855469 158.3125 174.730469 158.234375 174.585938 158.167969 C 174.441406 158.089844 174.304688 158.015625 174.179688 157.9375 C 173.890625 157.792969 173.621094 157.640625 173.324219 157.515625 C 173.179688 157.445312 173.023438 157.378906 172.878906 157.3125 L 172.4375 157.128906 C 172.128906 157.015625 171.820312 156.890625 171.511719 156.785156 C 171.203125 156.667969 170.886719 156.5625 170.570312 156.464844 C 170.25 156.371094 169.933594 156.265625 169.605469 156.179688 L 169.125 156.042969 C 169.117188 156.042969 169.097656 156.035156 169.085938 156.035156 C 168.84375 156.207031 168.605469 156.390625 168.363281 156.5625 C 168.191406 156.6875 167.902344 156.574219 167.929688 156.398438 C 168 155.976562 168.054688 155.5625 168.105469 155.148438 C 168.179688 155.09375 168.269531 155.035156 168.34375 154.976562 L 168.574219 154.804688 C 168.644531 154.746094 168.75 154.746094 168.84375 154.753906 L 169.125 154.824219 C 169.316406 154.878906 169.492188 154.917969 169.664062 154.976562 L 170.183594 155.128906 C 170.519531 155.238281 170.859375 155.351562 171.195312 155.46875 C 171.523438 155.59375 171.859375 155.71875 172.175781 155.84375 C 172.503906 155.976562 172.824219 156.109375 173.140625 156.265625 L 173.601562 156.496094 C 173.757812 156.5625 173.910156 156.648438 174.066406 156.726562 C 174.375 156.878906 174.664062 157.0625 174.960938 157.234375 C 175.09375 157.332031 175.238281 157.417969 175.375 157.515625 C 175.507812 157.609375 175.636719 157.726562 175.75 157.832031 C 175.835938 157.925781 175.960938 158.042969 176.050781 158.167969 Z M 175.855469 147.074219 L 175.605469 146.84375 C 175.683594 146.710938 175.796875 146.59375 175.914062 146.480469 C 176.03125 146.355469 176.175781 146.257812 176.308594 146.164062 C 176.445312 146.066406 176.589844 145.96875 176.75 145.902344 C 176.914062 145.816406 177.070312 145.75 177.234375 145.683594 C 177.5625 145.546875 177.886719 145.414062 178.234375 145.296875 C 178.398438 145.238281 178.5625 145.171875 178.734375 145.113281 L 179.246094 144.953125 C 179.59375 144.855469 179.949219 144.75 180.285156 144.671875 C 180.34375 144.652344 180.402344 144.644531 180.449219 144.625 C 180.507812 144.980469 180.554688 145.347656 180.605469 145.710938 C 180.304688 145.769531 180.015625 145.835938 179.71875 145.914062 L 179.226562 146.039062 C 179.0625 146.085938 178.910156 146.132812 178.746094 146.183594 C 178.417969 146.269531 178.109375 146.382812 177.800781 146.488281 C 177.648438 146.546875 177.492188 146.605469 177.347656 146.664062 C 177.195312 146.71875 177.039062 146.777344 176.886719 146.824219 L 176.394531 146.960938 C 176.230469 147 176.058594 147.046875 175.855469 147.074219 Z M 183.117188 128.34375 L 180.113281 125.082031 L 180.113281 117.578125 L 182 117.703125 L 185.429688 117.394531 L 185.640625 128.351562 L 183.117188 128.351562 Z M 179.304688 138.964844 C 179.285156 138.964844 179.265625 138.972656 179.253906 138.972656 C 178.917969 139.03125 178.589844 139.117188 178.265625 139.195312 L 177.773438 139.320312 C 177.609375 139.359375 177.453125 139.40625 177.292969 139.453125 C 176.972656 139.539062 176.664062 139.65625 176.355469 139.761719 C 176.203125 139.820312 176.050781 139.875 175.90625 139.933594 C 175.742188 139.980469 175.597656 140.039062 175.433594 140.097656 L 174.941406 140.230469 C 174.769531 140.28125 174.605469 140.328125 174.402344 140.355469 L 174.140625 140.136719 C 174.230469 140 174.335938 139.886719 174.449219 139.769531 C 174.566406 139.644531 174.710938 139.550781 174.835938 139.453125 C 174.980469 139.359375 175.125 139.269531 175.277344 139.195312 C 175.433594 139.117188 175.585938 139.050781 175.75 138.972656 C 175.761719 138.972656 175.761719 138.972656 175.769531 138.972656 C 176.097656 138.839844 176.425781 138.703125 176.75 138.597656 C 176.925781 138.539062 177.089844 138.472656 177.253906 138.425781 L 177.761719 138.253906 C 178.109375 138.15625 178.457031 138.058594 178.8125 137.972656 C 178.871094 137.953125 178.9375 137.945312 179.003906 137.925781 C 179.109375 138.234375 179.21875 138.597656 179.304688 138.964844 Z M 174.179688 142.53125 C 174.335938 142.605469 174.46875 142.703125 174.613281 142.796875 C 174.738281 142.90625 174.875 143 174.988281 143.125 C 175.09375 143.242188 175.203125 143.367188 175.277344 143.5 L 175.027344 143.710938 C 174.824219 143.683594 174.664062 143.636719 174.5 143.585938 L 174.007812 143.433594 C 173.851562 143.375 173.707031 143.316406 173.554688 143.269531 C 173.402344 143.210938 173.257812 143.144531 173.101562 143.085938 C 172.792969 142.972656 172.496094 142.855469 172.167969 142.761719 C 172.015625 142.710938 171.859375 142.644531 171.6875 142.617188 L 171.203125 142.480469 C 170.878906 142.394531 170.550781 142.308594 170.222656 142.242188 C 169.886719 142.164062 169.558594 142.097656 169.222656 142.03125 C 168.875 141.972656 168.546875 141.90625 168.199219 141.847656 L 167.863281 141.789062 C 167.757812 141.816406 167.640625 141.847656 167.535156 141.886719 C 167.410156 142.011719 167.285156 142.136719 167.160156 142.261719 C 167.035156 142.386719 166.757812 142.335938 166.707031 142.191406 C 166.601562 141.886719 166.496094 141.566406 166.378906 141.25 C 166.359375 141.195312 166.378906 141.125 166.429688 141.078125 C 166.523438 140.980469 166.621094 140.886719 166.726562 140.78125 L 166.917969 140.597656 C 166.976562 140.539062 167.074219 140.511719 167.171875 140.519531 L 167.46875 140.570312 C 167.671875 140.597656 167.84375 140.625 168.027344 140.65625 L 168.566406 140.75 C 168.933594 140.820312 169.289062 140.886719 169.636719 140.972656 C 169.992188 141.050781 170.339844 141.136719 170.695312 141.230469 C 171.042969 141.320312 171.378906 141.425781 171.726562 141.53125 L 172.234375 141.703125 C 172.410156 141.761719 172.5625 141.828125 172.734375 141.886719 C 173.074219 142.011719 173.390625 142.144531 173.71875 142.289062 C 173.863281 142.375 174.015625 142.453125 174.179688 142.53125 Z M 177.058594 167.761719 C 176.964844 167.789062 176.867188 167.828125 176.769531 167.847656 L 176.289062 168 C 176.125 168.050781 175.980469 168.117188 175.816406 168.164062 C 175.507812 168.28125 175.210938 168.40625 174.914062 168.53125 C 174.769531 168.585938 174.625 168.664062 174.480469 168.722656 C 174.324219 168.78125 174.179688 168.855469 174.035156 168.914062 L 173.554688 169.078125 C 173.402344 169.136719 173.226562 169.191406 173.035156 169.222656 L 172.753906 169.019531 C 172.8125 168.886719 172.917969 168.761719 173.023438 168.636719 C 173.121094 168.5 173.257812 168.40625 173.382812 168.300781 C 173.507812 168.191406 173.640625 168.097656 173.796875 168.011719 C 173.941406 167.925781 174.09375 167.847656 174.25 167.761719 C 174.25 167.761719 174.25 167.761719 174.257812 167.761719 C 174.574219 167.617188 174.882812 167.453125 175.203125 167.328125 C 175.363281 167.261719 175.519531 167.183594 175.691406 167.125 L 176.183594 166.933594 C 176.511719 166.808594 176.847656 166.695312 177.195312 166.589844 C 177.386719 166.53125 177.597656 166.464844 177.800781 166.40625 C 177.570312 166.855469 177.328125 167.320312 177.058594 167.761719 Z M 179.949219 160.714844 C 179.9375 160.714844 179.929688 160.714844 179.921875 160.726562 C 179.59375 160.8125 179.273438 160.917969 178.957031 161.003906 L 178.476562 161.15625 C 178.3125 161.207031 178.167969 161.273438 178.003906 161.332031 C 177.695312 161.4375 177.398438 161.570312 177.109375 161.6875 C 176.953125 161.753906 176.808594 161.820312 176.664062 161.886719 C 176.511719 161.945312 176.375 162.011719 176.222656 162.070312 L 175.742188 162.242188 C 175.585938 162.300781 175.414062 162.359375 175.210938 162.386719 L 174.941406 162.1875 C 175.007812 162.042969 175.105469 161.917969 175.210938 161.792969 C 175.308594 161.667969 175.441406 161.5625 175.566406 161.464844 C 175.691406 161.359375 175.828125 161.253906 175.980469 161.175781 C 176.136719 161.089844 176.289062 161.003906 176.433594 160.925781 C 176.75 160.78125 177.058594 160.617188 177.386719 160.484375 C 177.5625 160.425781 177.714844 160.351562 177.878906 160.28125 L 178.371094 160.089844 C 178.707031 159.964844 179.042969 159.851562 179.382812 159.746094 C 179.660156 159.65625 179.9375 159.582031 180.226562 159.496094 C 180.140625 159.898438 180.054688 160.3125 179.949219 160.714844 Z M 180.980469 153.199219 C 180.671875 153.285156 180.363281 153.382812 180.054688 153.46875 L 179.574219 153.621094 C 179.417969 153.667969 179.265625 153.726562 179.109375 153.785156 C 178.792969 153.898438 178.503906 154.023438 178.207031 154.148438 C 178.0625 154.21875 177.90625 154.285156 177.761719 154.351562 C 177.609375 154.410156 177.472656 154.476562 177.320312 154.535156 L 176.839844 154.707031 C 176.683594 154.765625 176.511719 154.8125 176.320312 154.851562 L 176.039062 154.648438 C 176.105469 154.515625 176.210938 154.390625 176.308594 154.257812 C 176.40625 154.132812 176.539062 154.035156 176.664062 153.917969 C 176.789062 153.824219 176.933594 153.71875 177.078125 153.632812 C 177.222656 153.554688 177.378906 153.46875 177.523438 153.390625 C 177.53125 153.390625 177.53125 153.390625 177.53125 153.382812 C 177.839844 153.238281 178.148438 153.082031 178.476562 152.949219 C 178.648438 152.882812 178.804688 152.804688 178.964844 152.746094 L 179.457031 152.554688 C 179.785156 152.429688 180.132812 152.324219 180.46875 152.21875 C 180.640625 152.160156 180.816406 152.113281 180.988281 152.0625 C 181.007812 152.429688 180.988281 152.8125 180.980469 153.199219 Z M 194.5 154.007812 L 191.214844 155.429688 L 190.359375 159.550781 L 183.15625 163.492188 C 186.421875 159.667969 185.996094 150.796875 185.996094 150.796875 L 194.585938 150.726562 Z M 202.570312 139.40625 C 201.75 139.558594 200.992188 139.828125 200.238281 140.144531 C 199.441406 140.492188 198.660156 140.90625 197.851562 141.308594 C 197.050781 141.710938 196.503906 142.039062 195.617188 142.011719 C 194.875 141.980469 194.144531 141.992188 193.390625 141.992188 L 193.390625 137.078125 C 193.664062 136.917969 193.941406 136.753906 194.210938 136.589844 C 194.761719 136.242188 195.320312 135.90625 195.867188 135.550781 C 195.894531 135.53125 195.914062 135.523438 195.945312 135.492188 L 196.058594 135.820312 L 196.867188 138.359375 L 197.0625 138.964844 L 197.734375 138.839844 C 198.121094 138.769531 198.515625 138.695312 198.921875 138.636719 C 199.316406 138.570312 199.71875 138.511719 200.113281 138.464844 C 200.507812 138.414062 200.914062 138.359375 201.308594 138.320312 C 201.710938 138.269531 202.109375 138.222656 202.511719 138.183594 C 202.90625 138.136719 203.3125 138.109375 203.714844 138.078125 C 204.109375 138.039062 204.515625 138.03125 204.917969 138.003906 C 205.3125 137.972656 205.710938 137.964844 206.113281 137.953125 C 206.507812 137.953125 206.914062 137.953125 207.296875 137.953125 C 207.691406 137.972656 208.085938 138.003906 208.472656 138.03125 L 209.050781 138.109375 L 209.339844 138.136719 L 209.601562 138.195312 L 210.128906 138.300781 C 210.3125 138.359375 210.515625 138.425781 210.707031 138.492188 L 210.996094 138.597656 L 211.226562 138.703125 C 211.402344 138.789062 211.59375 138.859375 211.757812 138.953125 L 212.265625 139.234375 L 212.75 139.539062 L 213.210938 139.855469 C 213.347656 139.980469 213.5 140.097656 213.625 140.222656 C 213.671875 140.269531 213.703125 140.308594 213.75 140.355469 C 213.296875 139.847656 211.777344 139.625 211.140625 139.464844 C 209.917969 139.164062 208.644531 139.011719 207.386719 138.972656 C 205.757812 138.945312 204.160156 139.109375 202.570312 139.40625 Z M 215.628906 146.203125 C 214.992188 146.539062 214.453125 147.019531 214 147.671875 C 213.664062 148.160156 213.414062 148.710938 213.257812 149.304688 C 213.125 149.796875 213.058594 150.34375 213.058594 150.890625 L 213.058594 158.648438 C 213.058594 158.707031 213.058594 158.753906 213.039062 158.8125 C 212.96875 159.148438 212.671875 159.398438 212.304688 159.398438 L 212.179688 159.398438 C 211.96875 159.398438 211.777344 159.3125 211.640625 159.167969 C 211.515625 159.03125 211.429688 158.851562 211.429688 158.648438 L 211.429688 150.882812 C 211.429688 150.121094 211.535156 149.402344 211.738281 148.710938 C 211.921875 148.09375 212.179688 147.5 212.527344 146.960938 C 212.574219 146.882812 212.625 146.808594 212.671875 146.730469 C 212.855469 146.449219 213.085938 146.171875 213.355469 145.894531 C 213.433594 145.808594 213.527344 145.71875 213.617188 145.644531 C 213.816406 145.453125 214.039062 145.269531 214.289062 145.097656 C 215.019531 144.605469 215.945312 144.210938 217.109375 144.085938 L 217.109375 145.71875 C 216.570312 145.808594 216.070312 145.960938 215.628906 146.203125 Z M 217.121094 149.132812 L 217.121094 150.046875 C 216.996094 150.277344 216.859375 150.507812 216.726562 150.738281 C 216.648438 150.863281 216.582031 150.976562 216.503906 151.101562 C 216.339844 150.804688 216.167969 150.507812 215.984375 150.230469 C 215.964844 150.199219 215.964844 150.160156 215.984375 150.121094 C 216.128906 149.871094 216.273438 149.621094 216.417969 149.363281 L 216.496094 149.21875 C 216.515625 149.179688 216.570312 149.152344 216.640625 149.140625 L 216.832031 149.140625 C 216.9375 149.132812 217.035156 149.132812 217.121094 149.132812 Z M 215.339844 148.59375 C 215.320312 148.691406 215.292969 148.777344 215.261719 148.863281 C 215.242188 148.921875 215.183594 148.960938 215.117188 148.96875 C 215.183594 148.835938 215.261719 148.710938 215.339844 148.59375 Z M 216.425781 158.90625 C 216.457031 159.359375 216.476562 159.832031 216.476562 160.300781 C 216.476562 164.109375 215.378906 167.195312 214.019531 167.195312 C 213.203125 167.195312 212.480469 166.089844 212.027344 164.378906 C 211.996094 164.253906 212.199219 164.183594 212.304688 164.261719 C 212.535156 164.425781 212.777344 164.53125 212.960938 164.597656 C 213.09375 164.664062 213.238281 164.703125 213.382812 164.703125 C 214.453125 164.703125 215.320312 162.773438 215.320312 160.40625 C 215.320312 159.140625 215.078125 158.003906 214.683594 157.226562 L 214.683594 153.679688 C 215.542969 154.351562 216.214844 156.304688 216.410156 158.753906 C 216.417969 158.800781 216.417969 158.851562 216.425781 158.90625 Z M 210.160156 159.886719 C 210.160156 160.023438 210.160156 160.15625 210.160156 160.300781 C 210.160156 164.550781 211.777344 168 213.769531 168 C 214.191406 168 214.605469 167.835938 214.984375 167.558594 C 215.117188 167.453125 215.347656 167.570312 215.242188 167.703125 C 214.617188 168.578125 213.867188 169.085938 213.058594 169.085938 C 210.824219 169.085938 209.011719 165.242188 209.011719 160.484375 C 209.011719 158.5625 209.300781 156.792969 209.8125 155.351562 L 209.8125 158.648438 C 209.800781 159.101562 209.925781 159.523438 210.160156 159.886719 Z M 211.429688 160.898438 C 211.660156 160.976562 211.921875 161.023438 212.171875 161.023438 L 212.296875 161.023438 C 212.75 161.023438 213.183594 160.898438 213.546875 160.667969 C 213.453125 161.472656 213 162.089844 212.460938 162.089844 C 211.84375 162.03125 211.574219 161.523438 211.449219 161.050781 L 211.449219 161.03125 C 211.449219 160.984375 211.4375 160.9375 211.429688 160.898438 Z M 215.28125 153.324219 C 215.089844 153.132812 214.886719 152.976562 214.675781 152.863281 L 214.675781 152.613281 C 214.894531 152.8125 215.109375 153.054688 215.300781 153.34375 C 215.308594 153.351562 215.320312 153.371094 215.328125 153.382812 C 215.320312 153.363281 215.300781 153.34375 215.28125 153.324219 Z M 220.53125 172.902344 C 220.40625 172.863281 220.308594 172.816406 220.222656 172.769531 L 219.933594 172.625 C 219.847656 172.566406 219.769531 172.507812 219.683594 172.460938 C 219.597656 172.402344 219.519531 172.355469 219.441406 172.296875 C 219.257812 172.191406 219.09375 172.085938 218.910156 171.988281 C 218.816406 171.941406 218.730469 171.882812 218.640625 171.84375 L 218.363281 171.703125 C 218.171875 171.613281 217.988281 171.519531 217.785156 171.433594 C 217.601562 171.347656 217.398438 171.269531 217.199219 171.191406 C 217.003906 171.113281 216.792969 171.039062 216.589844 170.960938 L 216.390625 170.894531 C 216.3125 170.894531 216.234375 170.902344 216.167969 170.914062 C 215.878906 171.097656 215.589844 171.269531 215.292969 171.441406 C 215.109375 171.546875 214.925781 171.652344 214.75 171.769531 C 214.953125 171.519531 215.136719 171.238281 215.308594 170.972656 C 215.464844 170.730469 215.617188 170.480469 215.773438 170.230469 C 215.8125 170.191406 215.867188 170.136719 215.898438 170.105469 L 216.023438 170.027344 C 216.070312 169.992188 216.148438 169.992188 216.195312 170.011719 L 216.378906 170.066406 C 216.503906 170.105469 216.609375 170.144531 216.726562 170.183594 L 217.042969 170.308594 C 217.253906 170.382812 217.46875 170.480469 217.667969 170.566406 C 217.882812 170.664062 218.082031 170.75 218.285156 170.847656 C 218.488281 170.941406 218.691406 171.058594 218.882812 171.152344 L 219.171875 171.316406 C 219.257812 171.375 219.355469 171.433594 219.453125 171.488281 C 219.632812 171.605469 219.808594 171.730469 219.992188 171.855469 C 220.066406 171.914062 220.144531 171.96875 220.222656 172.039062 C 220.316406 172.113281 220.40625 172.203125 220.472656 172.289062 C 220.53125 172.363281 220.597656 172.433594 220.636719 172.519531 C 220.683594 172.605469 220.722656 172.691406 220.75 172.789062 Z M 223.851562 164.40625 L 223.660156 164.53125 C 223.535156 164.503906 223.429688 164.453125 223.332031 164.40625 L 223.035156 164.28125 C 222.9375 164.234375 222.851562 164.183594 222.753906 164.136719 C 222.667969 164.089844 222.570312 164.039062 222.496094 163.992188 C 222.3125 163.898438 222.128906 163.800781 221.9375 163.714844 C 221.839844 163.664062 221.742188 163.628906 221.648438 163.578125 L 221.359375 163.464844 C 221.15625 163.386719 220.953125 163.308594 220.75 163.234375 C 220.550781 163.167969 220.335938 163.089844 220.136719 163.023438 C 219.933594 162.964844 219.722656 162.898438 219.507812 162.839844 L 219.199219 162.753906 C 219.191406 162.753906 219.179688 162.753906 219.179688 162.742188 C 219.027344 162.859375 218.875 162.972656 218.710938 163.089844 C 218.59375 163.167969 218.402344 163.097656 218.429688 162.972656 C 218.480469 162.703125 218.515625 162.4375 218.546875 162.167969 C 218.605469 162.128906 218.652344 162.097656 218.699219 162.050781 L 218.855469 161.9375 C 218.902344 161.90625 218.96875 161.898438 219.027344 161.90625 L 219.210938 161.953125 C 219.335938 161.984375 219.441406 162.023438 219.558594 162.050781 L 219.894531 162.148438 C 220.117188 162.214844 220.335938 162.28125 220.558594 162.367188 C 220.769531 162.445312 220.992188 162.523438 221.195312 162.609375 C 221.40625 162.695312 221.617188 162.78125 221.820312 162.878906 L 222.128906 163.023438 C 222.234375 163.070312 222.332031 163.128906 222.425781 163.175781 C 222.628906 163.28125 222.820312 163.398438 223.003906 163.503906 C 223.101562 163.558594 223.1875 163.628906 223.273438 163.683594 C 223.371094 163.742188 223.449219 163.820312 223.523438 163.886719 C 223.59375 163.964844 223.679688 164.03125 223.726562 164.128906 C 223.773438 164.222656 223.824219 164.308594 223.851562 164.40625 Z M 223.574219 159.273438 C 223.628906 159.351562 223.679688 159.445312 223.707031 159.53125 L 223.515625 159.65625 C 223.390625 159.628906 223.285156 159.582031 223.1875 159.53125 L 222.890625 159.40625 C 222.792969 159.371094 222.707031 159.3125 222.621094 159.273438 C 222.53125 159.226562 222.4375 159.167969 222.359375 159.121094 C 222.175781 159.023438 221.992188 158.925781 221.800781 158.839844 C 221.703125 158.792969 221.609375 158.753906 221.511719 158.714844 L 221.214844 158.589844 C 221.019531 158.515625 220.820312 158.4375 220.605469 158.359375 C 220.40625 158.285156 220.203125 158.214844 219.992188 158.148438 C 219.777344 158.082031 219.566406 158.015625 219.363281 157.957031 L 219.144531 157.898438 C 219.074219 157.910156 219 157.917969 218.921875 157.925781 C 218.894531 157.957031 218.863281 157.976562 218.824219 157.996094 C 218.730469 158.070312 218.554688 158.023438 218.535156 157.917969 C 218.527344 157.726562 218.496094 157.542969 218.480469 157.351562 C 218.507812 157.285156 218.554688 157.1875 218.59375 157.121094 L 218.679688 157.0625 C 218.730469 157.023438 218.796875 157.015625 218.855469 157.035156 L 219.039062 157.070312 C 219.164062 157.109375 219.269531 157.140625 219.394531 157.167969 L 219.730469 157.273438 C 219.953125 157.339844 220.171875 157.417969 220.386719 157.496094 C 220.605469 157.570312 220.820312 157.648438 221.03125 157.734375 C 221.242188 157.820312 221.445312 157.917969 221.648438 158.003906 L 221.953125 158.148438 C 222.0625 158.195312 222.15625 158.253906 222.253906 158.300781 C 222.445312 158.410156 222.640625 158.523438 222.832031 158.628906 C 222.925781 158.6875 223.015625 158.753906 223.101562 158.8125 C 223.199219 158.878906 223.273438 158.945312 223.339844 159.023438 C 223.4375 159.121094 223.515625 159.195312 223.574219 159.273438 Z M 222.40625 144.375 C 224.371094 144.289062 223.917969 145.777344 223.917969 145.777344 L 223.398438 146.71875 C 223.179688 146.269531 222.40625 145.960938 222.40625 145.960938 Z M 218.785156 135.820312 L 220.675781 135.820312 L 220.675781 142.546875 C 220.269531 142.53125 219.828125 142.511719 219.355469 142.492188 L 219.355469 139.164062 L 218.785156 139.164062 Z M 217.4375 153.015625 C 217.507812 152.949219 217.574219 152.882812 217.632812 152.824219 L 217.757812 152.699219 C 217.792969 152.660156 217.863281 152.640625 217.929688 152.652344 L 218.113281 152.679688 C 218.238281 152.699219 218.351562 152.71875 218.480469 152.738281 L 218.835938 152.796875 C 219.066406 152.84375 219.296875 152.890625 219.527344 152.9375 C 219.757812 152.996094 219.980469 153.054688 220.210938 153.113281 C 220.441406 153.167969 220.664062 153.246094 220.886719 153.304688 L 221.222656 153.417969 C 221.339844 153.457031 221.445312 153.496094 221.539062 153.535156 C 221.761719 153.621094 221.972656 153.707031 222.175781 153.792969 C 222.28125 153.851562 222.386719 153.898438 222.484375 153.949219 C 222.589844 154.007812 222.675781 154.0625 222.773438 154.132812 C 222.859375 154.1875 222.945312 154.257812 223.015625 154.34375 C 223.089844 154.417969 223.160156 154.496094 223.207031 154.59375 L 223.042969 154.726562 C 222.910156 154.71875 222.800781 154.679688 222.695312 154.648438 L 222.378906 154.554688 C 222.273438 154.523438 222.1875 154.476562 222.082031 154.449219 C 221.984375 154.410156 221.886719 154.371094 221.792969 154.324219 C 221.589844 154.257812 221.398438 154.179688 221.183594 154.113281 C 221.078125 154.082031 220.984375 154.042969 220.875 154.015625 L 220.558594 153.929688 C 220.347656 153.871094 220.136719 153.8125 219.921875 153.765625 C 219.710938 153.71875 219.488281 153.667969 219.269531 153.632812 C 219.046875 153.582031 218.824219 153.542969 218.613281 153.507812 L 218.382812 153.46875 C 218.316406 153.488281 218.238281 153.507812 218.171875 153.527344 L 217.929688 153.773438 C 217.84375 153.863281 217.660156 153.832031 217.632812 153.726562 C 217.5625 153.527344 217.488281 153.324219 217.410156 153.113281 C 217.398438 153.082031 217.410156 153.042969 217.4375 153.015625 Z M 217.46875 166.75 C 217.582031 166.683594 217.6875 166.617188 217.792969 166.550781 L 217.957031 166.453125 C 218.015625 166.425781 218.074219 166.414062 218.140625 166.445312 L 218.324219 166.5 C 218.449219 166.539062 218.546875 166.578125 218.660156 166.625 L 218.980469 166.75 C 219.191406 166.828125 219.414062 166.914062 219.613281 167.011719 C 219.816406 167.105469 220.027344 167.195312 220.230469 167.300781 C 220.433594 167.394531 220.625 167.5 220.820312 167.605469 L 221.109375 167.769531 C 221.203125 167.828125 221.289062 167.886719 221.386719 167.941406 C 221.570312 168.058594 221.742188 168.183594 221.925781 168.308594 C 221.992188 168.367188 222.0625 168.425781 222.128906 168.472656 C 222.242188 168.558594 222.339844 168.65625 222.425781 168.761719 C 222.484375 168.828125 222.542969 168.894531 222.582031 168.980469 C 222.628906 169.066406 222.667969 169.164062 222.6875 169.261719 L 222.476562 169.367188 C 222.351562 169.316406 222.253906 169.269531 222.167969 169.222656 L 221.886719 169.066406 C 221.792969 169.019531 221.714844 168.960938 221.636719 168.914062 C 221.550781 168.855469 221.464844 168.796875 221.386719 168.75 C 221.214844 168.644531 221.039062 168.539062 220.855469 168.441406 C 220.761719 168.394531 220.675781 168.335938 220.585938 168.300781 L 220.308594 168.164062 C 220.125 168.078125 219.933594 167.980469 219.730469 167.894531 C 219.546875 167.808594 219.34375 167.730469 219.144531 167.65625 C 218.949219 167.578125 218.75 167.492188 218.535156 167.425781 L 218.335938 167.347656 C 218.265625 167.347656 218.191406 167.355469 218.113281 167.367188 C 217.824219 167.550781 217.523438 167.730469 217.238281 167.894531 C 217.121094 167.960938 217.015625 168.03125 216.917969 168.085938 C 217.101562 167.675781 217.273438 167.261719 217.429688 166.839844 C 217.417969 166.789062 217.4375 166.769531 217.46875 166.75 Z M 217.332031 159.089844 C 217.363281 159.476562 217.378906 159.886719 217.378906 160.292969 C 217.378906 161.148438 217.3125 161.964844 217.1875 162.734375 C 217.179688 162.878906 217.160156 163.03125 217.140625 163.175781 C 217.101562 163.484375 217.0625 163.789062 217.015625 164.089844 C 216.804688 165.367188 216.496094 166.539062 216.101562 167.578125 C 215.992188 167.855469 215.878906 168.117188 215.773438 168.367188 C 214.703125 170.730469 213.152344 172.210938 211.429688 172.210938 C 208.183594 172.210938 205.554688 166.945312 205.554688 160.445312 C 205.554688 154.949219 207.441406 150.324219 209.984375 149.046875 C 209.871094 149.640625 209.8125 150.246094 209.8125 150.871094 L 209.8125 152.832031 C 208.484375 154.488281 207.605469 157.339844 207.605469 160.582031 C 207.605469 165.695312 209.773438 169.828125 212.449219 169.828125 C 214.617188 169.828125 216.457031 167.105469 217.074219 163.367188 C 216.832031 164.511719 216.476562 165.5 216.023438 166.28125 C 216.332031 165.578125 216.570312 164.769531 216.753906 163.898438 C 216.792969 163.734375 216.820312 163.558594 216.851562 163.398438 C 217.003906 162.484375 217.09375 161.503906 217.09375 160.476562 C 217.09375 160.0625 217.082031 159.667969 217.054688 159.273438 C 217.035156 158.957031 217.003906 158.640625 216.964844 158.332031 C 216.8125 157.042969 216.523438 155.859375 216.128906 154.878906 C 216.070312 154.746094 216.023438 154.621094 215.957031 154.496094 C 215.773438 154.082031 215.570312 153.71875 215.347656 153.390625 C 215.542969 153.582031 215.722656 153.824219 215.898438 154.082031 C 215.542969 153.402344 215.136719 152.824219 214.683594 152.382812 L 214.683594 150.882812 C 214.683594 150.824219 214.683594 150.757812 214.695312 150.691406 C 214.878906 150.941406 215.058594 151.210938 215.222656 151.496094 C 215.222656 151.496094 215.234375 151.507812 215.234375 151.515625 C 215.667969 152.246094 216.042969 153.113281 216.351562 154.074219 C 216.445312 154.382812 216.542969 154.6875 216.628906 155.003906 C 216.804688 155.6875 216.949219 156.410156 217.054688 157.160156 C 217.121094 157.464844 217.179688 157.792969 217.226562 158.128906 C 217.273438 158.445312 217.304688 158.773438 217.332031 159.089844 Z M 214.644531 135.820312 L 217.121094 135.820312 L 217.121094 139.15625 L 215.722656 139.15625 L 214.644531 138.078125 Z M 203.070312 131.339844 L 213.007812 131.550781 C 213.164062 131.640625 213.414062 131.871094 213.632812 132.464844 L 209.65625 132.4375 L 207.019531 132.253906 C 207.019531 132.253906 206.269531 132.253906 205.421875 132.628906 C 204.5625 132.996094 202.78125 136.292969 202.78125 136.292969 C 202.78125 136.292969 205.421875 135.253906 210.871094 136.292969 C 213.289062 136.742188 214.269531 137.964844 214.605469 139.175781 C 214.664062 139.367188 214.695312 139.550781 214.714844 139.730469 C 214.636719 139.617188 214.539062 139.511719 214.453125 139.40625 C 214.300781 139.234375 214.136719 139.089844 213.972656 138.925781 C 213.796875 138.78125 213.632812 138.628906 213.453125 138.503906 L 212.914062 138.128906 L 212.355469 137.789062 C 212.171875 137.675781 211.976562 137.589844 211.785156 137.484375 L 211.640625 137.40625 L 211.574219 137.367188 L 211.546875 137.347656 L 211.535156 137.339844 L 211.476562 137.320312 L 211.46875 137.320312 L 211.179688 137.214844 C 210.988281 137.136719 210.804688 137.058594 210.601562 136.992188 L 209.925781 136.820312 L 209.601562 136.734375 L 209.28125 136.675781 L 208.644531 136.570312 C 208.214844 136.511719 207.800781 136.484375 207.367188 136.445312 C 206.941406 136.425781 206.527344 136.398438 206.105469 136.398438 C 205.691406 136.398438 205.265625 136.386719 204.851562 136.398438 C 204.429688 136.40625 204.003906 136.425781 203.601562 136.453125 C 203.175781 136.492188 202.761719 136.523438 202.359375 136.570312 C 201.933594 136.609375 201.53125 136.648438 201.117188 136.703125 C 200.703125 136.761719 200.289062 136.828125 199.882812 136.898438 C 199.480469 136.964844 199.066406 137.03125 198.652344 137.109375 C 198.449219 137.148438 198.253906 137.175781 198.042969 137.222656 L 197.457031 135.695312 C 198.0625 134.898438 198.660156 134.101562 199.257812 133.300781 L 200.691406 131.390625 Z M 169.007812 112.78125 L 169.105469 112.636719 L 169.269531 112.617188 C 170.558594 112.445312 171.851562 112.308594 173.140625 112.203125 C 173.785156 112.144531 174.429688 112.097656 175.078125 112.058594 C 175.722656 112.011719 176.367188 111.972656 177.023438 111.945312 C 177.667969 111.90625 178.3125 111.878906 178.964844 111.859375 C 179.613281 111.839844 180.257812 111.800781 180.902344 111.800781 L 182.847656 111.78125 L 184.792969 111.800781 C 185.449219 111.800781 186.09375 111.847656 186.738281 111.878906 C 187.382812 111.90625 188.039062 111.933594 188.683594 111.992188 C 189.339844 112.039062 189.984375 112.089844 190.628906 112.15625 L 192.5625 112.386719 C 192.882812 112.414062 193.199219 112.464844 193.527344 112.519531 L 195.445312 112.847656 C 195.761719 112.914062 196.078125 112.992188 196.386719 113.070312 L 197.339844 113.289062 C 197.648438 113.355469 197.976562 113.433594 198.273438 113.539062 L 200.125 114.117188 L 200.09375 114.210938 L 198.226562 113.695312 C 197.917969 113.597656 197.601562 113.539062 197.292969 113.472656 L 196.339844 113.289062 C 196.019531 113.234375 195.703125 113.164062 195.394531 113.097656 L 194.433594 112.964844 L 193.46875 112.820312 C 193.152344 112.769531 192.832031 112.734375 192.507812 112.703125 L 190.582031 112.519531 C 189.933594 112.484375 189.289062 112.453125 188.644531 112.414062 C 188.007812 112.367188 187.355469 112.359375 186.710938 112.347656 C 186.0625 112.347656 185.417969 112.308594 184.773438 112.320312 L 182.839844 112.328125 L 180.902344 112.378906 C 180.257812 112.386719 179.613281 112.433594 178.976562 112.464844 C 178.332031 112.492188 177.675781 112.53125 177.039062 112.578125 C 176.394531 112.625 175.75 112.675781 175.113281 112.722656 C 174.46875 112.78125 173.824219 112.839844 173.1875 112.90625 C 171.957031 113.03125 170.722656 113.164062 169.511719 113.328125 L 168.730469 114.511719 L 168.105469 114.089844 Z M 164.359375 127.46875 L 164.359375 127.140625 C 164.992188 127.140625 165.601562 127.160156 166.207031 127.199219 C 171.917969 127.515625 176 129.226562 178.359375 132.292969 C 178.445312 132.398438 178.515625 132.484375 178.570312 132.542969 C 178.667969 132.667969 178.785156 132.765625 178.910156 132.859375 L 178.292969 132.859375 C 175.164062 128.3125 168.304688 127.582031 167.980469 127.542969 L 166.140625 127.507812 Z M 166.054688 135.128906 L 166.601562 135.128906 C 166.96875 135.128906 167.34375 135.136719 167.710938 135.15625 C 168.074219 135.167969 168.441406 135.195312 168.816406 135.214844 C 169.183594 135.242188 169.546875 135.28125 169.914062 135.332031 L 170.464844 135.398438 C 170.644531 135.417969 170.828125 135.457031 171.011719 135.484375 C 171.378906 135.542969 171.734375 135.617188 172.101562 135.695312 C 172.285156 135.742188 172.457031 135.792969 172.628906 135.839844 C 172.8125 135.886719 172.96875 135.953125 173.140625 136.023438 C 173.304688 136.097656 173.46875 136.167969 173.621094 136.261719 C 173.765625 136.359375 173.910156 136.453125 174.035156 136.578125 L 173.851562 136.828125 C 173.652344 136.839844 173.46875 136.828125 173.304688 136.808594 L 172.773438 136.753906 C 172.609375 136.734375 172.445312 136.695312 172.273438 136.675781 C 172.109375 136.648438 171.945312 136.609375 171.78125 136.578125 C 171.445312 136.523438 171.117188 136.464844 170.773438 136.425781 C 170.597656 136.417969 170.433594 136.386719 170.261719 136.367188 L 169.742188 136.320312 C 169.394531 136.300781 169.058594 136.273438 168.710938 136.261719 C 168.363281 136.242188 168.007812 136.242188 167.660156 136.234375 C 167.324219 136.234375 166.976562 136.234375 166.621094 136.234375 L 166.101562 136.253906 L 166.0625 136.253906 C 165.8125 136.695312 165.5625 137.136719 165.300781 137.570312 C 165.1875 137.761719 165.070312 137.953125 164.964844 138.144531 C 164.714844 137.683594 164.445312 137.234375 164.164062 136.792969 C 164.136719 136.742188 164.136719 136.683594 164.164062 136.636719 C 164.386719 136.253906 164.609375 135.867188 164.828125 135.472656 L 164.957031 135.261719 C 164.992188 135.195312 165.082031 135.148438 165.175781 135.136719 L 165.484375 135.128906 C 165.6875 135.136719 165.871094 135.136719 166.054688 135.128906 Z M 161.835938 133.570312 C 161.980469 132.976562 162.152344 132.398438 162.308594 131.8125 L 162.375 131.570312 C 162.394531 131.503906 162.460938 131.445312 162.558594 131.429688 L 162.847656 131.371094 C 163.046875 131.320312 163.222656 131.304688 163.394531 131.265625 L 163.945312 131.167969 C 164.117188 131.148438 164.289062 131.121094 164.472656 131.101562 C 164.945312 131.410156 165.445312 131.714844 165.9375 132.023438 C 165.714844 132.050781 165.503906 132.082031 165.292969 132.101562 C 164.945312 132.160156 164.609375 132.207031 164.269531 132.265625 L 163.925781 132.320312 C 163.847656 132.378906 163.761719 132.445312 163.683594 132.503906 C 163.570312 132.925781 163.460938 133.351562 163.335938 133.761719 C 163.242188 134.082031 163.15625 134.386719 163.066406 134.707031 C 163.019531 134.859375 162.730469 134.90625 162.605469 134.773438 C 162.355469 134.492188 162.085938 134.234375 161.804688 133.984375 C 161.757812 133.9375 161.75 133.886719 161.75 133.820312 C 161.777344 133.761719 161.804688 133.667969 161.835938 133.570312 Z M 158.867188 129.851562 L 158.867188 129.839844 C 159.714844 129.8125 160.667969 129.785156 161.699219 129.773438 C 161.429688 129.859375 161.171875 129.949219 160.910156 130.023438 L 160.8125 130.0625 C 160.679688 130.214844 160.535156 130.390625 160.398438 130.542969 C 160.398438 130.910156 160.398438 131.273438 160.398438 131.648438 C 160.398438 131.957031 160.390625 132.265625 160.382812 132.5625 C 160.382812 132.714844 160.140625 132.800781 159.976562 132.714844 C 159.667969 132.542969 159.339844 132.390625 159.003906 132.253906 C 158.917969 132.226562 158.867188 132.160156 158.867188 132.089844 L 158.859375 131.648438 C 158.851562 131.042969 158.867188 130.449219 158.867188 129.851562 Z M 157.164062 134.484375 C 159.390625 134.484375 161.429688 136.097656 162.992188 138.769531 L 162.992188 138.78125 C 163.011719 138.789062 163.011719 138.800781 163.019531 138.808594 C 163.683594 139.945312 164.261719 141.261719 164.734375 142.742188 C 164.886719 143.203125 165.03125 143.683594 165.15625 144.171875 C 165.4375 145.210938 165.65625 146.316406 165.820312 147.46875 C 165.917969 147.949219 166.003906 148.449219 166.070312 148.960938 C 166.140625 149.429688 166.199219 149.921875 166.226562 150.421875 C 166.273438 151.027344 166.292969 151.640625 166.292969 152.277344 C 166.292969 153.582031 166.199219 154.84375 166.003906 156.015625 C 165.984375 156.246094 165.957031 156.464844 165.9375 156.6875 C 165.878906 157.167969 165.8125 157.640625 165.746094 158.101562 C 165.425781 160.050781 164.945312 161.859375 164.339844 163.464844 C 164.175781 163.878906 164.011719 164.28125 163.820312 164.675781 C 163 166.492188 161.988281 167.960938 160.863281 168.992188 C 159.734375 170.011719 158.484375 170.578125 157.164062 170.578125 C 152.175781 170.578125 148.152344 162.484375 148.152344 152.515625 C 148.152344 142.566406 152.1875 134.484375 157.164062 134.484375 Z M 157.164062 134.484375 " fill-opacity="1" fill-rule="nonzero"/><g clip-path="url(#1393afd10a)"><path fill="#336431" d="M 128.054688 174.632812 C 127.9375 173.652344 127.839844 172.691406 127.746094 171.738281 C 126.425781 158.457031 126.722656 147.75 126.9375 143.460938 L 145.917969 138.550781 C 147.207031 135.898438 148.890625 133.457031 150.914062 131.3125 L 121.476562 138.933594 L 121.3125 140.972656 C 121.253906 141.742188 120.234375 154.746094 121.984375 172.296875 L 97.59375 174.644531 L 128.054688 174.644531 Z M 128.054688 174.632812 " fill-opacity="1" fill-rule="nonzero"/></g><path fill="#336431" d="M 227.753906 138.023438 L 248.765625 143.460938 C 248.976562 147.757812 249.273438 158.496094 247.9375 171.84375 C 247.851562 172.757812 247.746094 173.691406 247.636719 174.644531 L 277 174.644531 L 253.695312 172.402344 C 255.46875 154.804688 254.445312 141.742188 254.378906 140.972656 L 254.207031 138.933594 L 227.125 131.925781 C 227.242188 133.9375 227.992188 135.925781 227.753906 138.023438 Z M 227.753906 138.023438 " fill-opacity="1" fill-rule="nonzero"/><g clip-path="url(#5c3231cb06)"><path fill="#336431" d="M 233.617188 223.863281 C 231.121094 228.585938 228.339844 232.890625 225.269531 236.765625 L 225.269531 235.6875 L 221.703125 230.910156 L 213.164062 227.355469 L 217.457031 232.898438 L 217.457031 237.601562 C 217.1875 237.570312 216.929688 237.550781 216.667969 237.523438 C 216.695312 235.621094 216.726562 233.082031 216.628906 233.042969 C 216.484375 233.007812 212.382812 227.546875 212.382812 227.546875 L 208.289062 233.292969 L 208.289062 236.890625 C 201.53125 236.476562 194.894531 236.320312 188.53125 236.351562 C 188.539062 236.351562 188.546875 236.359375 188.566406 236.359375 L 185.707031 236.390625 C 185.71875 236.390625 185.726562 236.378906 185.738281 236.378906 C 177.453125 236.484375 169.65625 236.898438 162.671875 237.457031 L 162.671875 236.285156 C 165.445312 236.609375 162.703125 231.066406 162.703125 231.066406 C 162.703125 231.066406 161.101562 234.042969 161.238281 235.3125 C 161.34375 236.292969 162.054688 236.332031 162.382812 236.292969 L 162.382812 237.476562 C 160.140625 237.648438 157.984375 237.839844 155.933594 238.03125 L 155.933594 236.4375 C 159.726562 236.890625 155.960938 229.324219 155.960938 229.324219 C 155.960938 229.324219 153.785156 233.382812 153.96875 235.121094 C 154.101562 236.464844 155.085938 236.503906 155.527344 236.464844 L 155.527344 238.082031 C 154.257812 238.207031 153.015625 238.339844 151.820312 238.464844 C 151.214844 237.753906 150.625 237.015625 150.039062 236.273438 C 151.917969 234.332031 148.34375 227.152344 148.34375 227.152344 C 148.34375 227.152344 147.253906 229.179688 146.457031 231.285156 C 144.90625 228.949219 143.453125 226.480469 142.074219 223.882812 C 141.34375 222.511719 140.648438 221.105469 139.964844 219.65625 L 98.140625 219.65625 L 135.363281 223.230469 C 138.210938 229.085938 141.457031 234.398438 145.089844 239.148438 C 155.855469 253.25 170.03125 262.417969 187.210938 266.386719 L 187.855469 266.542969 L 188.5 266.386719 C 205.527344 262.457031 219.585938 253.429688 230.3125 239.550781 C 230.402344 239.457031 230.476562 239.359375 230.5625 239.261719 C 233.367188 236.015625 235.773438 232.429688 237.757812 228.585938 C 237.699219 228.554688 237.652344 228.527344 237.59375 228.5 C 238.546875 226.796875 239.460938 225.039062 240.339844 223.242188 L 277.558594 219.664062 L 235.726562 219.664062 C 235.050781 221.078125 234.347656 222.492188 233.617188 223.863281 Z M 153.773438 240.6875 C 162.289062 238.359375 173.015625 236.890625 184.753906 236.667969 L 184.609375 236.746094 C 175.492188 237.378906 164.65625 240.714844 156.691406 243.675781 C 155.691406 242.714844 154.71875 241.714844 153.773438 240.6875 Z M 161.238281 247.703125 C 171.332031 240.398438 179.507812 237.917969 184.023438 237.0625 C 176.386719 240.472656 168.546875 247.703125 165.40625 250.789062 C 163.972656 249.828125 162.585938 248.796875 161.238281 247.703125 Z M 186.921875 236.925781 C 184.871094 242.386719 183.058594 250.539062 181.757812 256.921875 C 179.238281 256.601562 176.75 256.101562 174.355469 255.449219 C 178.785156 245.875 184.378906 239.53125 186.921875 236.925781 C 186.929688 236.910156 186.941406 236.890625 186.949219 236.871094 L 186.988281 236.871094 C 186.96875 236.890625 186.949219 236.910156 186.921875 236.925781 Z M 212.757812 233.515625 L 214.125 233.515625 L 214.125 236.976562 L 212.757812 236.976562 Z M 210.929688 233.515625 L 212.296875 233.515625 L 212.296875 236.976562 L 210.929688 236.976562 Z M 192.613281 257.207031 C 191.3125 250.777344 189.472656 242.472656 187.394531 236.925781 L 187.335938 236.871094 L 187.375 236.871094 C 187.382812 236.890625 187.394531 236.910156 187.394531 236.925781 C 190.003906 239.589844 195.789062 246.15625 200.257812 256.101562 C 197.773438 256.652344 195.210938 257.027344 192.613281 257.207031 Z M 209.484375 251.34375 C 206.835938 248.691406 198.457031 240.707031 190.3125 237.0625 C 194.921875 237.925781 203.378906 240.511719 213.816406 248.230469 C 212.410156 249.335938 210.96875 250.375 209.484375 251.34375 Z M 218.640625 244.039062 C 210.726562 241.050781 199.613281 237.535156 190.203125 236.785156 L 189.78125 236.640625 C 192.96875 236.679688 196.078125 236.8125 199.101562 237.023438 C 202.28125 237.253906 205.34375 237.570312 208.28125 237.964844 C 211.199219 238.359375 213.992188 238.851562 216.628906 239.40625 C 216.890625 239.464844 217.140625 239.523438 217.398438 239.570312 C 218.96875 239.917969 220.480469 240.28125 221.9375 240.6875 C 220.855469 241.847656 219.757812 242.972656 218.640625 244.039062 Z M 218.640625 244.039062 " fill-opacity="1" fill-rule="nonzero"/></g><g fill="#4f6d47" fill-opacity="1"><g transform="translate(50.79963, 208.646264)"><g><path d="M 17 -24.046875 L 17 -14.765625 L 7.9375 -14.765625 L 7.9375 -24.046875 L 2.75 -24.046875 L 2.75 0 L 7.9375 0 L 7.9375 -9.921875 L 17 -9.921875 L 17 0 L 22.1875 0 L 22.1875 -24.046875 Z M 17 -24.046875 "/></g></g></g><g fill="#4f6d47" fill-opacity="1"><g transform="translate(75.076576, 208.646264)"><g><path d="M 18.6875 0 L 24.34375 0 L 14.625 -24.046875 L 9.71875 -24.046875 L 0.28125 0 L 5.796875 0 L 7.453125 -4.53125 L 17 -4.53125 Z M 12.21875 -17.6875 L 15.390625 -9.0625 L 9.0625 -9.0625 Z M 12.21875 -17.6875 "/></g></g></g><g fill="#4f6d47" fill-opacity="1"><g transform="translate(99.044483, 208.646264)"><g><path d="M 15.96875 0 L 21.78125 0 L 16.453125 -9.0625 C 19.125 -10.375 20.84375 -12.90625 20.84375 -16.078125 C 20.84375 -20.703125 17.234375 -24.046875 12.4375 -24.046875 L 2.75 -24.046875 L 2.75 0 L 7.9375 0 L 7.9375 -8.171875 L 11.265625 -8.171875 Z M 7.9375 -19.234375 L 12.09375 -19.234375 C 14.28125 -19.234375 15.5625 -17.890625 15.5625 -16.109375 C 15.5625 -14.28125 14.28125 -12.984375 12.09375 -12.984375 L 7.9375 -12.984375 Z M 7.9375 -19.234375 "/></g></g></g><g fill="#4f6d47" fill-opacity="1"><g transform="translate(121.055097, 208.646264)"><g><path d="M 18 -24.046875 L 12.09375 -7.046875 L 6.015625 -24.046875 L 0.28125 -24.046875 L 9.65625 0 L 14.5625 0 L 23.65625 -24.046875 Z M 18 -24.046875 "/></g></g></g><g fill="#4f6d47" fill-opacity="1"><g transform="translate(144.473579, 208.646264)"><g><path d="M 7.9375 -4.8125 L 7.9375 -9.75 L 16.28125 -9.75 L 16.28125 -14.453125 L 7.9375 -14.453125 L 7.9375 -19.234375 L 17.171875 -19.234375 L 17.171875 -24.046875 L 2.75 -24.046875 L 2.75 0 L 17.546875 0 L 17.546875 -4.8125 Z M 7.9375 -4.8125 "/></g></g></g><g fill="#4f6d47" fill-opacity="1"><g transform="translate(162.98166, 208.646264)"><g><path d="M 10.71875 0.484375 C 15.6875 0.484375 19.8125 -2.03125 19.8125 -7.21875 C 19.8125 -12.609375 15.21875 -13.734375 11.578125 -14.671875 C 9 -15.28125 6.9375 -15.796875 6.9375 -17.484375 C 6.9375 -19.0625 8.625 -19.78125 10.296875 -19.78125 C 12.265625 -19.78125 13.984375 -18.828125 13.984375 -16.71875 L 19.09375 -16.71875 C 19.09375 -21.53125 15.96875 -24.484375 10.4375 -24.484375 C 5.125 -24.484375 1.71875 -21.875 1.71875 -17.28125 C 1.71875 -12.09375 6.109375 -11.03125 9.75 -10.125 C 12.359375 -9.546875 14.5625 -9.03125 14.5625 -7.140625 C 14.5625 -5.359375 12.640625 -4.328125 10.6875 -4.328125 C 8.546875 -4.328125 6.625 -5.453125 6.625 -7.765625 L 1.375 -7.765625 C 1.375 -2.609375 5.1875 0.484375 10.71875 0.484375 Z M 10.71875 0.484375 "/></g></g></g><g fill="#4f6d47" fill-opacity="1"><g transform="translate(183.550059, 208.646264)"><g><path d="M 19.296875 -24.046875 L 0.71875 -24.046875 L 0.71875 -19.203125 L 7.421875 -19.203125 L 7.421875 0 L 12.609375 0 L 12.609375 -19.203125 L 19.296875 -19.203125 Z M 19.296875 -24.046875 "/></g></g></g><g fill="#4f6d47" fill-opacity="1"><g transform="translate(202.916609, 208.646264)"><g/></g></g><g fill="#4f6d47" fill-opacity="1"><g transform="translate(210.436379, 208.646264)"><g><path d="M 17 -24.046875 L 17 -14.765625 L 7.9375 -14.765625 L 7.9375 -24.046875 L 2.75 -24.046875 L 2.75 0 L 7.9375 0 L 7.9375 -9.921875 L 17 -9.921875 L 17 0 L 22.1875 0 L 22.1875 -24.046875 Z M 17 -24.046875 "/></g></g></g><g fill="#4f6d47" fill-opacity="1"><g transform="translate(234.713329, 208.646264)"><g><path d="M 18.6875 0 L 24.34375 0 L 14.625 -24.046875 L 9.71875 -24.046875 L 0.28125 0 L 5.796875 0 L 7.453125 -4.53125 L 17 -4.53125 Z M 12.21875 -17.6875 L 15.390625 -9.0625 L 9.0625 -9.0625 Z M 12.21875 -17.6875 "/></g></g></g><g fill="#4f6d47" fill-opacity="1"><g transform="translate(258.681241, 208.646264)"><g><path d="M 18 -24.046875 L 12.09375 -7.046875 L 6.015625 -24.046875 L 0.28125 -24.046875 L 9.65625 0 L 14.5625 0 L 23.65625 -24.046875 Z M 18 -24.046875 "/></g></g></g><g fill="#4f6d47" fill-opacity="1"><g transform="translate(282.099731, 208.646264)"><g><path d="M 7.9375 -4.8125 L 7.9375 -9.75 L 16.28125 -9.75 L 16.28125 -14.453125 L 7.9375 -14.453125 L 7.9375 -19.234375 L 17.171875 -19.234375 L 17.171875 -24.046875 L 2.75 -24.046875 L 2.75 0 L 17.546875 0 L 17.546875 -4.8125 Z M 7.9375 -4.8125 "/></g></g></g><g fill="#4f6d47" fill-opacity="1"><g transform="translate(300.607804, 208.646264)"><g><path d="M 17.96875 -24.046875 L 17.96875 -9.375 L 7.421875 -24.046875 L 2.75 -24.046875 L 2.75 0 L 7.828125 0 L 7.828125 -15.015625 L 18.71875 0 L 23.078125 0 L 23.078125 -24.046875 Z M 17.96875 -24.046875 "/></g></g></g></svg>